<?xml version="1.0" encoding="UTF-8"?>
<svg width="44px" height="56px" viewBox="0 0 44 56" version="1.1" xmlns="http://www.w3.org/2000/svg" xmlns:xlink="http://www.w3.org/1999/xlink">
    <!-- Generator: Sketch 52.5 (67469) - http://www.bohemiancoding.com/sketch -->
    <title>filetype-csv</title>
    <desc>Created with Sketch.</desc>
    <g id="Page-1" stroke="none" stroke-width="1" fill="none" fill-rule="evenodd">
        <g id="Artboard" transform="translate(-272.000000, -210.000000)">
            <g id="filetype-csv" transform="translate(272.000000, 210.000000)">
                <path d="M30.985,0 L1.963,0 C1.155,0 0.5,0.655 0.5,1.926 L0.5,55 C0.5,55.345 1.155,56 1.963,56 L42.037,56 C42.845,56 43.5,55.345 43.5,55 L43.5,12.978 C43.5,12.282 43.407,12.058 43.243,11.893 L31.607,0.257 C31.442,0.093 31.218,0 30.985,0 Z" id="Path" fill="#E9E9E0"></path>
                <polygon id="Path" fill="#D9D7CA" points="31.5 0.151 31.5 12 43.349 12"></polygon>
                <path d="M42.037,56 L1.963,56 C1.155,56 0.5,55.345 0.5,54.537 L0.5,39 L43.5,39 L43.5,54.537 C43.5,55.345 42.845,56 42.037,56 Z" id="Path" fill="#F36FA0"></path>
                <g id="Group" transform="translate(8.000000, 42.000000)" fill="#FFFFFF">
                    <path d="M7.58,9.975 C7.206,10.339 6.782,10.613 6.309,10.795 C5.835,10.978 5.325,11.068 4.778,11.068 C4.176,11.068 3.623,10.959 3.117,10.74 C2.611,10.521 2.169,10.198 1.791,9.769 C1.413,9.34 1.116,8.803 0.902,8.156 C0.688,7.509 0.581,6.761 0.581,5.914 C0.581,5.067 0.688,4.321 0.902,3.679 C1.116,3.036 1.412,2.501 1.791,2.073 C2.169,1.644 2.613,1.319 3.124,1.095 C3.634,0.871 4.186,0.76 4.778,0.76 C5.325,0.76 5.835,0.851 6.309,1.033 C6.783,1.216 7.206,1.489 7.58,1.853 L6.445,2.865 C6.217,2.6 5.964,2.409 5.686,2.291 C5.408,2.173 5.119,2.113 4.818,2.113 C4.481,2.113 4.159,2.176 3.854,2.304 C3.548,2.432 3.275,2.648 3.034,2.953 C2.792,3.259 2.603,3.652 2.467,4.136 C2.331,4.62 2.257,5.211 2.248,5.913 C2.257,6.597 2.328,7.18 2.46,7.663 C2.592,8.146 2.774,8.54 3.007,8.846 C3.24,9.152 3.504,9.374 3.8,9.516 C4.096,9.658 4.408,9.728 4.737,9.728 C5.066,9.728 5.373,9.668 5.66,9.55 C5.947,9.432 6.209,9.24 6.446,8.976 L7.58,9.975 Z" id="Path"></path>
                    <path d="M15.633,8.238 C15.633,8.602 15.558,8.956 15.407,9.298 C15.256,9.64 15.045,9.941 14.771,10.2 C14.497,10.459 14.16,10.667 13.759,10.822 C13.358,10.977 12.902,11.054 12.392,11.054 C12.173,11.054 11.948,11.042 11.715,11.02 C11.482,10.998 11.248,10.958 11.011,10.904 C10.774,10.849 10.548,10.774 10.334,10.678 C10.12,10.582 9.935,10.466 9.78,10.329 L10.067,9.153 C10.194,9.226 10.356,9.297 10.552,9.365 C10.748,9.433 10.95,9.497 11.16,9.556 C11.369,9.616 11.579,9.663 11.789,9.7 C11.998,9.736 12.194,9.755 12.377,9.755 C12.933,9.755 13.359,9.625 13.655,9.365 C13.951,9.105 14.099,8.72 14.099,8.21 C14.099,7.9 13.994,7.636 13.785,7.417 C13.575,7.198 13.313,7 12.999,6.822 C12.685,6.644 12.345,6.467 11.98,6.289 C11.615,6.111 11.273,5.901 10.955,5.66 C10.636,5.419 10.372,5.134 10.162,4.806 C9.952,4.478 9.848,4.068 9.848,3.576 C9.848,3.13 9.93,2.733 10.094,2.387 C10.258,2.041 10.479,1.746 10.757,1.505 C11.035,1.264 11.359,1.079 11.728,0.951 C12.097,0.823 12.487,0.76 12.897,0.76 C13.316,0.76 13.74,0.799 14.168,0.876 C14.596,0.953 14.942,1.079 15.207,1.252 C15.152,1.37 15.088,1.5 15.016,1.642 C14.943,1.784 14.874,1.915 14.811,2.038 C14.747,2.161 14.692,2.264 14.647,2.346 C14.601,2.428 14.574,2.474 14.565,2.483 C14.51,2.456 14.449,2.42 14.38,2.374 C14.311,2.328 14.213,2.283 14.086,2.237 C13.958,2.191 13.79,2.16 13.58,2.141 C13.37,2.122 13.101,2.127 12.773,2.155 C12.59,2.174 12.418,2.225 12.253,2.312 C12.088,2.399 11.943,2.505 11.815,2.633 C11.687,2.761 11.587,2.904 11.514,3.064 C11.441,3.223 11.405,3.377 11.405,3.522 C11.405,3.886 11.509,4.18 11.719,4.404 C11.928,4.628 12.188,4.823 12.498,4.992 C12.808,5.161 13.145,5.325 13.51,5.484 C13.874,5.643 14.214,5.838 14.529,6.065 C14.844,6.292 15.105,6.578 15.315,6.919 C15.528,7.261 15.633,7.7 15.633,8.238 Z" id="Path"></path>
                    <polygon id="Path" points="20.035 11.055 16.904 0.924 18.777 0.924 21.115 9.619 23.59 0.924 25.449 0.924 22.168 11.055"></polygon>
                </g>
                <path d="M17.5,16 L17.5,12 L5.5,12 L5.5,16 L5.5,18 L5.5,20 L5.5,22 L5.5,24 L5.5,26 L5.5,28 L5.5,30 L5.5,34 L15.5,34 L17.5,34 L38.5,34 L38.5,30 L38.5,28 L38.5,26 L38.5,24 L38.5,22 L38.5,20 L38.5,16 L17.5,16 Z M7.5,14 L15.5,14 L15.5,16 L7.5,16 L7.5,14 Z M7.5,18 L15.5,18 L15.5,20 L7.5,20 L7.5,18 Z M7.5,22 L15.5,22 L15.5,24 L7.5,24 L7.5,22 Z M7.5,26 L15.5,26 L15.5,28 L7.5,28 L7.5,26 Z M15.5,32 L7.5,32 L7.5,30 L15.5,30 L15.5,32 Z M36.5,32 L17.5,32 L17.5,30 L36.5,30 L36.5,32 Z M36.5,28 L17.5,28 L17.5,26 L36.5,26 L36.5,28 Z M36.5,24 L17.5,24 L17.5,22 L36.5,22 L36.5,24 Z M17.5,20 L17.5,18 L36.5,18 L36.5,20 L17.5,20 Z" id="Shape" fill="#F36FA0" fill-rule="nonzero"></path>
            </g>
        </g>
    </g>
</svg>