<?xml version="1.0" encoding="UTF-8"?>
<svg width="44px" height="56px" viewBox="0 0 44 56" version="1.1" xmlns="http://www.w3.org/2000/svg" xmlns:xlink="http://www.w3.org/1999/xlink">
    <!-- Generator: Sketch 52.5 (67469) - http://www.bohemiancoding.com/sketch -->
    <title>filetype-other</title>
    <desc>Created with Sketch.</desc>
    <g id="Page-1" stroke="none" stroke-width="1" fill="none" fill-rule="evenodd">
        <g id="Artboard" transform="translate(-221.000000, -210.000000)">
            <g id="filetype-other" transform="translate(221.000000, 210.000000)">
                <path d="M30.985,0 L1.963,0 C1.155,0 0.5,0.655 0.5,1.926 L0.5,55 C0.5,55.345 1.155,56 1.963,56 L42.037,56 C42.845,56 43.5,55.345 43.5,55 L43.5,12.978 C43.5,12.282 43.407,12.058 43.243,11.893 L31.607,0.257 C31.442,0.093 31.218,0 30.985,0 Z" id="Path" fill="#E9E9E0"></path>
                <polygon id="Path" fill="#D9D7CA" points="31.5 0.151 31.5 12 43.349 12"></polygon>
                <path d="M42.037,56 L1.963,56 C1.155,56 0.5,55.345 0.5,54.537 L0.5,39 L43.5,39 L43.5,54.537 C43.5,55.345 42.845,56 42.037,56 Z" id="Path" fill="#EC6630"></path>
                <path d="M6.61132812,52.2167969 C5.40819711,52.2167969 4.44043335,51.7998089 3.70800781,50.9658203 C2.97558228,50.1318318 2.609375,49.0293037 2.609375,47.6582031 C2.609375,46.27929 2.97753538,45.1767619 3.71386719,44.3505859 C4.45019899,43.5244099 5.4335876,43.1113281 6.6640625,43.1113281 C7.89063113,43.1113281 8.87304318,43.5234334 9.61132812,44.3476562 C10.3496131,45.1718791 10.71875,46.2714775 10.71875,47.6464844 C10.71875,49.0488351 10.3496131,50.1611287 9.61132812,50.9833984 C8.87304318,51.8056682 7.87305318,52.2167969 6.61132812,52.2167969 Z M6.62890625,51.296875 C7.51562943,51.296875 8.20116945,50.9775423 8.68554688,50.3388672 C9.1699243,49.7001921 9.41210938,48.7988339 9.41210938,47.6347656 C9.41210938,46.5058537 9.16894774,45.6230501 8.68261719,44.9863281 C8.19628663,44.3496062 7.5234418,44.03125 6.6640625,44.03125 C5.80077693,44.03125 5.12695555,44.3505827 4.64257812,44.9892578 C4.1582007,45.6279329 3.91601562,46.5156193 3.91601562,47.6523438 C3.91601562,48.7851619 4.1562476,49.675778 4.63671875,50.3242188 C5.1171899,50.9726595 5.78124576,51.296875 6.62890625,51.296875 Z M14.5039062,52 L14.5039062,44.2480469 L11.4277344,44.2480469 L11.4277344,43.328125 L18.8105469,43.328125 L18.8105469,44.2480469 L15.734375,44.2480469 L15.734375,52 L14.5039062,52 Z M20.0292969,52 L20.0292969,43.328125 L21.2597656,43.328125 L21.2597656,46.984375 L25.3847656,46.984375 L25.3847656,43.328125 L26.6152344,43.328125 L26.6152344,52 L25.3847656,52 L25.3847656,47.9042969 L21.2597656,47.9042969 L21.2597656,52 L20.0292969,52 Z M28.8476562,52 L28.8476562,43.328125 L33.6933594,43.328125 L33.6933594,44.2480469 L30.078125,44.2480469 L30.078125,47.03125 L33.1074219,47.03125 L33.1074219,47.9394531 L30.078125,47.9394531 L30.078125,51.0800781 L33.9453125,51.0800781 L33.9453125,52 L28.8476562,52 Z M35.3515625,52 L35.3515625,43.328125 L37.9765625,43.328125 C38.8085979,43.328125 39.4462868,43.5117169 39.8896484,43.8789062 C40.33301,44.2460956 40.5546875,44.7792934 40.5546875,45.4785156 C40.5546875,46.6347714 39.970709,47.4550757 38.8027344,47.9394531 L41.6972656,52 L40.1855469,52 L37.71875,48.3320312 L36.5703125,48.3320312 L36.5703125,52 L35.3515625,52 Z M36.5703125,47.4121094 L36.96875,47.4121094 C38.5156327,47.4121094 39.2890625,46.8046936 39.2890625,45.5898438 C39.2890625,44.695308 38.6406315,44.2480469 37.34375,44.2480469 L36.5703125,44.2480469 L36.5703125,47.4121094 Z" id="OTHER" fill="#FFFFFF"></path>
                <path d="M22.6223092,25.4727273 L22.6223092,26.0975207 C22.6223092,26.6991736 22.1761252,27 21.5890411,27 C20.9784736,27 20.5088063,26.6991736 20.5088063,26.0975207 L20.5088063,25.4495868 C20.5088063,23.9917355 20.7436399,23.2280992 21.3776908,22.4413223 C21.8473581,21.8396694 22.1056751,21.6082645 23.4911937,20.6826446 C25.2289628,19.4793388 25.7455969,18.877686 25.7455969,17.6975207 C25.7455969,15.985124 24.407045,14.8975207 22.1761252,14.8975207 C20.0156556,14.8975207 18.8180039,15.985124 18.2778865,17.5586777 C18.0900196,18.1140496 17.7142857,18.322314 17.2915851,18.322314 C17.1506849,18.322314 17.0097847,18.2991736 16.8688845,18.2760331 C16.4227006,18.1603306 16,17.8826446 16,17.3735537 C16,17.2578512 16.0234834,17.1190083 16.0704501,16.9801653 C16.3992172,15.9619835 16.9863014,15.0363636 17.8317025,14.3421488 C18.8414873,13.5090909 20.2504892,13 22.2935421,13 C25.7690802,13 28,14.7818182 28,17.6049587 C28,19.5256198 27.037182,20.5900826 25.2289628,21.8396694 C23.2798434,23.1818182 22.6223092,23.6909091 22.6223092,25.4727273 Z M21.5,28 C22.326087,28 23,28.5869565 23,29.5 C23,30.4130435 22.326087,31 21.5,31 C20.6521739,31 20,30.4130435 20,29.5 C20,28.5869565 20.6521739,28 21.5,28 Z" id="?" fill="#EC6630"></path>
            </g>
        </g>
    </g>
</svg>