<?xml version="1.0" encoding="UTF-8"?>
<svg width="44px" height="56px" viewBox="0 0 44 56" version="1.1" xmlns="http://www.w3.org/2000/svg" xmlns:xlink="http://www.w3.org/1999/xlink">
    <!-- Generator: Sketch 52.5 (67469) - http://www.bohemiancoding.com/sketch -->
    <title>filetype-pdf</title>
    <desc>Created with Sketch.</desc>
    <g id="Page-1" stroke="none" stroke-width="1" fill="none" fill-rule="evenodd">
        <g id="Artboard" transform="translate(-375.000000, -209.000000)">
            <g id="filetype-pdf" transform="translate(375.000000, 209.000000)">
                <path d="M30.985,0 L1.963,0 C1.155,0 0.5,0.655 0.5,1.926 L0.5,55 C0.5,55.345 1.155,56 1.963,56 L42.037,56 C42.845,56 43.5,55.345 43.5,55 L43.5,12.978 C43.5,12.282 43.407,12.058 43.243,11.893 L31.607,0.257 C31.442,0.093 31.218,0 30.985,0 Z" id="Path" fill="#E9E9E0"></path>
                <polygon id="Path" fill="#D9D7CA" points="31.5 0.151 31.5 12 43.349 12"></polygon>
                <path d="M13.514,33.324 C13.166,33.324 12.832,33.211 12.547,32.998 C11.506,32.217 11.366,31.348 11.432,30.756 C11.614,29.128 13.627,27.424 17.417,25.688 C18.921,22.392 20.352,18.331 21.205,14.938 C20.207,12.766 19.237,9.948 19.944,8.295 C20.192,7.716 20.501,7.272 21.078,7.08 C21.306,7.004 21.882,6.908 22.094,6.908 C22.598,6.908 23.041,7.557 23.355,7.957 C23.65,8.333 24.319,9.13 22.982,14.759 C24.33,17.543 26.24,20.379 28.07,22.321 C29.381,22.084 30.509,21.963 31.428,21.963 C32.994,21.963 33.943,22.328 34.33,23.08 C34.65,23.702 34.519,24.429 33.94,25.24 C33.383,26.019 32.615,26.431 31.72,26.431 C30.504,26.431 29.088,25.663 27.509,24.146 C24.672,24.739 21.359,25.797 18.681,26.968 C17.845,28.742 17.044,30.171 16.298,31.219 C15.273,32.654 14.389,33.324 13.514,33.324 Z M16.176,28.198 C14.039,29.399 13.168,30.386 13.105,30.942 C13.095,31.034 13.068,31.276 13.536,31.634 C13.685,31.587 14.555,31.19 16.176,28.198 Z M29.813,23.756 C30.628,24.383 30.827,24.7 31.36,24.7 C31.594,24.7 32.261,24.69 32.57,24.259 C32.719,24.05 32.777,23.916 32.8,23.844 C32.677,23.779 32.514,23.647 31.625,23.647 C31.12,23.648 30.485,23.67 29.813,23.756 Z M22.343,17.174 C21.628,19.648 20.684,22.319 19.669,24.738 C21.759,23.927 24.031,23.219 26.165,22.718 C24.815,21.15 23.466,19.192 22.343,17.174 Z M21.736,8.712 C21.638,8.745 20.406,10.469 21.832,11.928 C22.781,9.813 21.779,8.698 21.736,8.712 Z" id="Shape" fill="#CC4B4C" fill-rule="nonzero"></path>
                <path d="M42.037,56 L1.963,56 C1.155,56 0.5,55.345 0.5,54.537 L0.5,39 L43.5,39 L43.5,54.537 C43.5,55.345 42.845,56 42.037,56 Z" id="Path" fill="#CC4B4C"></path>
                <g id="Group" transform="translate(9.000000, 42.000000)" fill="#FFFFFF">
                    <path d="M2.385,11 L0.744,11 L0.744,0.924 L3.642,0.924 C4.07,0.924 4.494,0.992 4.913,1.129 C5.332,1.266 5.708,1.471 6.041,1.744 C6.374,2.017 6.643,2.348 6.848,2.735 C7.053,3.122 7.156,3.557 7.156,4.041 C7.156,4.552 7.069,5.014 6.896,5.429 C6.723,5.844 6.481,6.193 6.171,6.475 C5.861,6.757 5.487,6.976 5.05,7.131 C4.613,7.286 4.129,7.363 3.601,7.363 L2.384,7.363 L2.384,11 L2.385,11 Z M2.385,2.168 L2.385,6.16 L3.889,6.16 C4.089,6.16 4.287,6.126 4.484,6.057 C4.68,5.989 4.86,5.877 5.024,5.722 C5.188,5.567 5.32,5.351 5.42,5.073 C5.52,4.795 5.57,4.451 5.57,4.041 C5.57,3.877 5.547,3.687 5.502,3.474 C5.456,3.26 5.363,3.055 5.222,2.859 C5.08,2.663 4.882,2.499 4.627,2.367 C4.372,2.235 4.034,2.169 3.615,2.169 L2.385,2.169 L2.385,2.168 Z" id="Shape" fill-rule="nonzero"></path>
                    <path d="M17.219,5.682 C17.219,6.511 17.13,7.22 16.952,7.808 C16.774,8.396 16.549,8.888 16.275,9.285 C16.001,9.682 15.694,9.994 15.352,10.222 C15.01,10.45 14.68,10.62 14.361,10.735 C14.042,10.849 13.75,10.922 13.486,10.954 C13.222,10.984 13.026,11 12.898,11 L9.084,11 L9.084,0.924 L12.119,0.924 C12.967,0.924 13.712,1.059 14.354,1.327 C14.996,1.595 15.53,1.954 15.954,2.4 C16.378,2.846 16.694,3.355 16.904,3.924 C17.114,4.494 17.219,5.08 17.219,5.682 Z M12.352,9.797 C13.464,9.797 14.266,9.442 14.758,8.731 C15.25,8.02 15.496,6.99 15.496,5.641 C15.496,5.222 15.446,4.807 15.346,4.397 C15.245,3.987 15.052,3.616 14.765,3.283 C14.478,2.95 14.088,2.681 13.596,2.476 C13.104,2.271 12.466,2.168 11.682,2.168 L10.725,2.168 L10.725,9.797 L12.352,9.797 Z" id="Shape" fill-rule="nonzero"></path>
                    <polygon id="Path" points="21.266 2.168 21.266 5.34 25.477 5.34 25.477 6.461 21.266 6.461 21.266 11 19.598 11 19.598 0.924 25.9 0.924 25.9 2.168"></polygon>
                </g>
            </g>
        </g>
    </g>
</svg>