<?xml version="1.0" encoding="UTF-8"?>
<svg width="44px" height="56px" viewBox="0 0 44 56" version="1.1" xmlns="http://www.w3.org/2000/svg" xmlns:xlink="http://www.w3.org/1999/xlink">
    <!-- Generator: Sketch 52.5 (67469) - http://www.bohemiancoding.com/sketch -->
    <title>filetype-doc</title>
    <desc>Created with Sketch.</desc>
    <g id="Page-1" stroke="none" stroke-width="1" fill="none" fill-rule="evenodd">
        <g id="Artboard" transform="translate(-324.000000, -210.000000)">
            <g id="filetype-doc" transform="translate(324.000000, 210.000000)">
                <path d="M30.985,0 L1.963,0 C1.155,0 0.5,0.655 0.5,1.926 L0.5,55 C0.5,55.345 1.155,56 1.963,56 L42.037,56 C42.845,56 43.5,55.345 43.5,55 L43.5,12.978 C43.5,12.282 43.407,12.058 43.243,11.893 L31.607,0.257 C31.442,0.093 31.218,0 30.985,0 Z" id="Path" fill="#E9E9E0"></path>
                <polygon id="Path" fill="#D9D7CA" points="31.5 0.151 31.5 12 43.349 12"></polygon>
                <path d="M12.5,13 L6.5,13 C5.948,13 5.5,12.552 5.5,12 C5.5,11.448 5.948,11 6.5,11 L12.5,11 C13.052,11 13.5,11.448 13.5,12 C13.5,12.552 13.052,13 12.5,13 Z" id="Path" fill="#8697CB"></path>
                <path d="M15.5,18 L6.5,18 C5.948,18 5.5,17.552 5.5,17 C5.5,16.448 5.948,16 6.5,16 L15.5,16 C16.052,16 16.5,16.448 16.5,17 C16.5,17.552 16.052,18 15.5,18 Z" id="Path" fill="#8697CB"></path>
                <path d="M19.5,18 C19.24,18 18.98,17.89 18.79,17.71 C18.61,17.52 18.5,17.26 18.5,17 C18.5,16.74 18.61,16.48 18.79,16.29 C19.16,15.92 19.84,15.92 20.21,16.29 C20.39,16.48 20.5,16.74 20.5,17 C20.5,17.26 20.39,17.52 20.21,17.71 C20.02,17.89 19.76,18 19.5,18 Z" id="Path" fill="#8697CB"></path>
                <path d="M31.5,18 L23.5,18 C22.948,18 22.5,17.552 22.5,17 C22.5,16.448 22.948,16 23.5,16 L31.5,16 C32.052,16 32.5,16.448 32.5,17 C32.5,17.552 32.052,18 31.5,18 Z" id="Path" fill="#8697CB"></path>
                <path d="M6.5,33 C6.24,33 5.98,32.89 5.79,32.71 C5.61,32.52 5.5,32.26 5.5,32 C5.5,31.74 5.61,31.48 5.79,31.29 C6.16,30.92 6.84,30.92 7.21,31.29 C7.39,31.48 7.5,31.73 7.5,32 C7.5,32.26 7.39,32.52 7.21,32.71 C7.02,32.89 6.76,33 6.5,33 Z" id="Path" fill="#8697CB"></path>
                <path d="M18.5,33 L10.5,33 C9.948,33 9.5,32.552 9.5,32 C9.5,31.448 9.948,31 10.5,31 L18.5,31 C19.052,31 19.5,31.448 19.5,32 C19.5,32.552 19.052,33 18.5,33 Z" id="Path" fill="#8697CB"></path>
                <path d="M37.5,18 L35.5,18 C34.948,18 34.5,17.552 34.5,17 C34.5,16.448 34.948,16 35.5,16 L37.5,16 C38.052,16 38.5,16.448 38.5,17 C38.5,17.552 38.052,18 37.5,18 Z" id="Path" fill="#8697CB"></path>
                <path d="M28.5,23 L6.5,23 C5.948,23 5.5,22.552 5.5,22 C5.5,21.448 5.948,21 6.5,21 L28.5,21 C29.052,21 29.5,21.448 29.5,22 C29.5,22.552 29.052,23 28.5,23 Z" id="Path" fill="#8697CB"></path>
                <path d="M37.5,23 L31.5,23 C30.948,23 30.5,22.552 30.5,22 C30.5,21.448 30.948,21 31.5,21 L37.5,21 C38.052,21 38.5,21.448 38.5,22 C38.5,22.552 38.052,23 37.5,23 Z" id="Path" fill="#8697CB"></path>
                <path d="M10.5,28 L6.5,28 C5.948,28 5.5,27.552 5.5,27 C5.5,26.448 5.948,26 6.5,26 L10.5,26 C11.052,26 11.5,26.448 11.5,27 C11.5,27.552 11.052,28 10.5,28 Z" id="Path" fill="#8697CB"></path>
                <path d="M24.5,28 L14.5,28 C13.948,28 13.5,27.552 13.5,27 C13.5,26.448 13.948,26 14.5,26 L24.5,26 C25.052,26 25.5,26.448 25.5,27 C25.5,27.552 25.052,28 24.5,28 Z" id="Path" fill="#8697CB"></path>
                <path d="M37.5,28 L28.5,28 C27.948,28 27.5,27.552 27.5,27 C27.5,26.448 27.948,26 28.5,26 L37.5,26 C38.052,26 38.5,26.448 38.5,27 C38.5,27.552 38.052,28 37.5,28 Z" id="Path" fill="#8697CB"></path>
                <path d="M42.037,56 L1.963,56 C1.155,56 0.5,55.345 0.5,54.537 L0.5,39 L43.5,39 L43.5,54.537 C43.5,55.345 42.845,56 42.037,56 Z" id="Path" fill="#0096E6"></path>
                <g id="Group" transform="translate(9.000000, 42.000000)" fill="#FFFFFF">
                    <path d="M8.5,5.682 C8.5,6.511 8.411,7.22 8.233,7.808 C8.055,8.396 7.83,8.888 7.556,9.285 C7.282,9.682 6.975,9.994 6.633,10.222 C6.291,10.45 5.961,10.62 5.642,10.735 C5.323,10.849 5.031,10.922 4.767,10.954 C4.503,10.984 4.307,11 4.18,11 L0.366,11 L0.366,0.924 L3.4,0.924 C4.248,0.924 4.993,1.059 5.635,1.327 C6.277,1.595 6.811,1.954 7.235,2.4 C7.659,2.846 7.975,3.355 8.185,3.924 C8.395,4.494 8.5,5.08 8.5,5.682 Z M3.633,9.797 C4.745,9.797 5.547,9.442 6.039,8.731 C6.531,8.02 6.777,6.99 6.777,5.641 C6.777,5.222 6.727,4.807 6.627,4.397 C6.526,3.987 6.333,3.616 6.046,3.283 C5.759,2.95 5.369,2.681 4.877,2.476 C4.385,2.271 3.747,2.168 2.963,2.168 L2.006,2.168 L2.006,9.797 L3.633,9.797 Z" id="Shape" fill-rule="nonzero"></path>
                    <path d="M18.475,5.914 C18.475,6.762 18.368,7.509 18.154,8.156 C17.94,8.803 17.643,9.341 17.265,9.769 C16.887,10.198 16.445,10.521 15.939,10.74 C15.433,10.959 14.879,11.068 14.278,11.068 C13.677,11.068 13.123,10.959 12.617,10.74 C12.111,10.521 11.669,10.198 11.291,9.769 C10.913,9.34 10.616,8.803 10.402,8.156 C10.188,7.509 10.081,6.761 10.081,5.914 C10.081,5.067 10.188,4.321 10.402,3.679 C10.616,3.036 10.912,2.501 11.291,2.073 C11.669,1.644 12.111,1.319 12.617,1.095 C13.123,0.871 13.677,0.76 14.278,0.76 C14.879,0.76 15.433,0.871 15.939,1.095 C16.445,1.319 16.887,1.644 17.265,2.073 C17.643,2.502 17.939,3.037 18.154,3.679 C18.367,4.321 18.475,5.066 18.475,5.914 Z M14.236,9.729 C14.573,9.729 14.894,9.663 15.2,9.531 C15.505,9.399 15.779,9.182 16.02,8.882 C16.261,8.581 16.451,8.187 16.587,7.699 C16.723,7.211 16.796,6.617 16.806,5.915 C16.797,5.231 16.726,4.65 16.594,4.172 C16.462,3.693 16.28,3.299 16.047,2.989 C15.814,2.679 15.55,2.456 15.254,2.319 C14.958,2.182 14.646,2.114 14.317,2.114 C13.98,2.114 13.658,2.177 13.353,2.305 C13.047,2.433 12.774,2.649 12.533,2.954 C12.291,3.26 12.102,3.653 11.966,4.137 C11.83,4.621 11.756,5.212 11.747,5.914 C11.756,6.598 11.827,7.181 11.959,7.664 C12.091,8.147 12.273,8.541 12.506,8.847 C12.739,9.153 13.003,9.375 13.299,9.517 C13.596,9.658 13.908,9.729 14.236,9.729 Z" id="Shape" fill-rule="nonzero"></path>
                    <path d="M27.607,9.975 C27.233,10.339 26.809,10.613 26.336,10.795 C25.862,10.978 25.352,11.068 24.805,11.068 C24.203,11.068 23.65,10.959 23.144,10.74 C22.638,10.521 22.196,10.198 21.818,9.769 C21.44,9.34 21.143,8.803 20.929,8.156 C20.715,7.509 20.608,6.761 20.608,5.914 C20.608,5.067 20.715,4.321 20.929,3.679 C21.143,3.036 21.439,2.501 21.818,2.073 C22.196,1.644 22.64,1.319 23.151,1.095 C23.661,0.871 24.213,0.76 24.805,0.76 C25.352,0.76 25.862,0.851 26.336,1.033 C26.81,1.216 27.233,1.489 27.607,1.853 L26.472,2.865 C26.244,2.6 25.991,2.409 25.713,2.291 C25.435,2.173 25.146,2.113 24.845,2.113 C24.508,2.113 24.186,2.176 23.881,2.304 C23.575,2.432 23.302,2.648 23.061,2.953 C22.819,3.259 22.63,3.652 22.494,4.136 C22.358,4.62 22.284,5.211 22.275,5.913 C22.284,6.597 22.355,7.18 22.487,7.663 C22.619,8.146 22.801,8.54 23.034,8.846 C23.267,9.152 23.531,9.374 23.827,9.516 C24.123,9.658 24.435,9.728 24.764,9.728 C25.093,9.728 25.4,9.668 25.687,9.55 C25.974,9.432 26.236,9.24 26.473,8.976 L27.607,9.975 Z" id="Path"></path>
                </g>
            </g>
        </g>
    </g>
</svg>