<?xml version="1.0" encoding="UTF-8"?>
<svg width="44px" height="56px" viewBox="0 0 44 56" version="1.1" xmlns="http://www.w3.org/2000/svg" xmlns:xlink="http://www.w3.org/1999/xlink">
    <!-- Generator: Sketch 52.5 (67469) - http://www.bohemiancoding.com/sketch -->
    <title>filetype-xls</title>
    <desc>Created with Sketch.</desc>
    <g id="Page-1" stroke="none" stroke-width="1" fill="none" fill-rule="evenodd">
        <g id="Artboard" transform="translate(-426.000000, -209.000000)">
            <g id="filetype-xls" transform="translate(426.000000, 209.000000)">
                <path d="M30.985,0 L1.963,0 C1.155,0 0.5,0.655 0.5,1.926 L0.5,55 C0.5,55.345 1.155,56 1.963,56 L42.037,56 C42.845,56 43.5,55.345 43.5,55 L43.5,12.978 C43.5,12.282 43.407,12.058 43.243,11.893 L31.607,0.257 C31.442,0.093 31.218,0 30.985,0 Z" id="Path" fill="#E9E9E0"></path>
                <polygon id="Path" fill="#D9D7CA" points="31.5 0.151 31.5 12 43.349 12"></polygon>
                <path d="M42.037,56 L1.963,56 C1.155,56 0.5,55.345 0.5,54.537 L0.5,39 L43.5,39 L43.5,54.537 C43.5,55.345 42.845,56 42.037,56 Z" id="Path" fill="#91CDA0"></path>
                <g id="Group" transform="translate(9.000000, 42.000000)" fill="#FFFFFF">
                    <polygon id="Path" points="5.379 6.105 7.936 11 6.036 11 4.436 7.199 4.299 7.199 2.576 11 0.676 11 3.233 6.105 0.512 0.923 2.385 0.923 4.162 5.025 4.299 5.025 6.227 0.923 8.1 0.923"></polygon>
                    <polygon id="Path" points="12.037 0.924 12.037 9.756 16.672 9.756 16.672 11 10.369 11 10.369 0.924"></polygon>
                    <path d="M24.041,8.238 C24.041,8.602 23.966,8.956 23.815,9.298 C23.664,9.64 23.453,9.94 23.18,10.2 C22.907,10.46 22.569,10.667 22.168,10.822 C21.767,10.977 21.311,11.054 20.801,11.054 C20.582,11.054 20.357,11.042 20.124,11.02 C19.891,10.998 19.657,10.958 19.42,10.904 C19.183,10.849 18.957,10.774 18.743,10.678 C18.529,10.582 18.344,10.466 18.189,10.329 L18.476,9.153 C18.603,9.226 18.765,9.297 18.961,9.365 C19.157,9.433 19.359,9.497 19.569,9.556 C19.778,9.616 19.988,9.663 20.198,9.7 C20.407,9.736 20.603,9.755 20.786,9.755 C21.342,9.755 21.768,9.625 22.064,9.365 C22.36,9.105 22.508,8.72 22.508,8.21 C22.508,7.9 22.403,7.636 22.194,7.417 C21.984,7.198 21.722,7 21.408,6.822 C21.094,6.644 20.754,6.467 20.389,6.289 C20.024,6.111 19.682,5.901 19.364,5.66 C19.045,5.419 18.781,5.134 18.571,4.806 C18.361,4.478 18.257,4.068 18.257,3.576 C18.257,3.13 18.339,2.733 18.503,2.387 C18.667,2.041 18.888,1.746 19.166,1.505 C19.444,1.264 19.768,1.079 20.137,0.951 C20.506,0.823 20.896,0.76 21.306,0.76 C21.725,0.76 22.149,0.799 22.577,0.876 C23.005,0.953 23.351,1.079 23.616,1.252 C23.561,1.37 23.497,1.5 23.425,1.642 C23.352,1.784 23.283,1.915 23.22,2.038 C23.156,2.161 23.101,2.264 23.056,2.346 C23.01,2.428 22.983,2.474 22.974,2.483 C22.919,2.456 22.858,2.42 22.789,2.374 C22.72,2.328 22.622,2.283 22.495,2.237 C22.367,2.191 22.199,2.16 21.989,2.141 C21.779,2.122 21.51,2.127 21.182,2.155 C20.999,2.174 20.827,2.225 20.662,2.312 C20.497,2.399 20.352,2.505 20.224,2.633 C20.096,2.761 19.996,2.904 19.923,3.064 C19.85,3.223 19.814,3.377 19.814,3.522 C19.814,3.886 19.918,4.18 20.128,4.404 C20.337,4.628 20.597,4.823 20.907,4.992 C21.217,5.161 21.554,5.325 21.919,5.484 C22.283,5.643 22.623,5.838 22.938,6.065 C23.253,6.292 23.514,6.578 23.724,6.919 C23.936,7.261 24.041,7.7 24.041,8.238 Z" id="Path"></path>
                </g>
                <path d="M17.5,16 L17.5,12 L5.5,12 L5.5,16 L5.5,18 L5.5,20 L5.5,22 L5.5,24 L5.5,26 L5.5,28 L5.5,30 L5.5,34 L15.5,34 L17.5,34 L38.5,34 L38.5,30 L38.5,28 L38.5,26 L38.5,24 L38.5,22 L38.5,20 L38.5,16 L17.5,16 Z M7.5,14 L15.5,14 L15.5,16 L7.5,16 L7.5,14 Z M7.5,18 L15.5,18 L15.5,20 L7.5,20 L7.5,18 Z M7.5,22 L15.5,22 L15.5,24 L7.5,24 L7.5,22 Z M7.5,26 L15.5,26 L15.5,28 L7.5,28 L7.5,26 Z M15.5,32 L7.5,32 L7.5,30 L15.5,30 L15.5,32 Z M36.5,32 L17.5,32 L17.5,30 L36.5,30 L36.5,32 Z M36.5,28 L17.5,28 L17.5,26 L36.5,26 L36.5,28 Z M36.5,24 L17.5,24 L17.5,22 L36.5,22 L36.5,24 Z M17.5,20 L17.5,18 L36.5,18 L36.5,20 L17.5,20 Z" id="Shape" fill="#91CDA0" fill-rule="nonzero"></path>
            </g>
        </g>
    </g>
</svg>